<svg width="220" height="37" viewBox="0 0 220 37" fill="none" xmlns="http://www.w3.org/2000/svg">
<g clip-path="url(#clip0_1_549)">
<mask id="mask0_1_549" style="mask-type:luminance" maskUnits="userSpaceOnUse" x="-58" y="-33" width="335" height="102">
<path d="M276.594 -32.8771H-57.3913V68.9618H276.594V-32.8771Z" fill="white"/>
</mask>
<g mask="url(#mask0_1_549)">
<path d="M55.4839 -0.165966C55.4839 -0.124965 55.4864 -0.0814019 55.4864 -0.0404009C55.4864 10.7326 46.7503 19.4684 35.9763 19.4684C25.1998 19.4684 16.4662 10.7352 16.4662 -0.0404009C16.4662 -0.0814019 16.4662 -0.124965 16.4688 -0.165966H-0.316555C-0.316555 -0.124965 -0.319107 -0.0814019 -0.319107 -0.0404009C-0.319107 20.0014 15.9325 36.2507 35.9763 36.2507C56.0227 36.2507 72.2718 20.004 72.2718 -0.0404009C72.2718 -0.0814019 72.2692 -0.124965 72.2692 -0.165966H55.4839Z" fill="#F47920"/>
</g>
<mask id="mask1_1_549" style="mask-type:luminance" maskUnits="userSpaceOnUse" x="-58" y="-33" width="335" height="102">
<path d="M276.594 -32.8771H-57.3913V68.9618H276.594V-32.8771Z" fill="white"/>
</mask>
<g mask="url(#mask1_1_549)">
<path d="M123.685 4.07764C126.655 4.07764 127.475 4.35184 127.475 6.78371C127.475 9.28478 126.655 9.5231 123.685 9.5231C120.715 9.5231 119.862 9.28478 119.862 6.78371C119.862 4.35184 120.715 4.07764 123.685 4.07764Z" fill="#00995D"/>
</g>
<mask id="mask2_1_549" style="mask-type:luminance" maskUnits="userSpaceOnUse" x="-58" y="-33" width="335" height="102">
<path d="M276.594 -32.8771H-57.3913V68.9618H276.594V-32.8771Z" fill="white"/>
</mask>
<g mask="url(#mask2_1_549)">
<path d="M74.6084 5.14366C74.6084 4.86946 74.8484 4.63115 75.1191 4.63115H81.2633C81.5365 4.63115 81.7766 4.87203 81.7766 5.14366V18.9815C81.7766 21.5492 83.0049 23.1252 85.8037 23.1252C88.6026 23.1252 89.7977 21.5492 89.7977 18.9815V5.14366C89.7977 4.86946 90.0377 4.63115 90.311 4.63115H96.4551C96.7284 4.63115 96.9684 4.87203 96.9684 5.14366V18.5689C96.9684 24.5961 93.9653 28.9473 85.8063 28.9473C77.6141 28.9473 74.6109 24.5987 74.6109 18.5689V5.14366H74.6084Z" fill="#00995D"/>
</g>
<mask id="mask3_1_549" style="mask-type:luminance" maskUnits="userSpaceOnUse" x="-58" y="-33" width="335" height="102">
<path d="M276.594 -32.8771H-57.3913V68.9618H276.594V-32.8771Z" fill="white"/>
</mask>
<g mask="url(#mask3_1_549)">
<path d="M99.2999 28.0914V10.9658C99.2999 10.6916 99.54 10.4533 99.8107 10.4533H105.613C105.886 10.4533 106.123 10.6916 106.123 10.9658V14.0819C106.943 11.6167 109.673 10.1099 112.574 10.1099C115.988 10.1099 118.138 11.8909 118.138 16.6188V28.0914C118.138 28.3656 117.901 28.6065 117.628 28.6065H111.826C111.552 28.6065 111.315 28.3656 111.315 28.0914V17.9539C111.315 16.3088 110.769 15.317 108.789 15.317C106.775 15.317 106.126 15.6937 106.126 16.3113V28.094C106.126 28.3682 105.888 28.6091 105.615 28.6091H99.8132C99.5374 28.6039 99.2999 28.3656 99.2999 28.0914Z" fill="#00995D"/>
</g>
<mask id="mask4_1_549" style="mask-type:luminance" maskUnits="userSpaceOnUse" x="-58" y="-33" width="335" height="102">
<path d="M276.594 -32.8771H-57.3913V68.9618H276.594V-32.8771Z" fill="white"/>
</mask>
<g mask="url(#mask4_1_549)">
<path d="M120.304 10.9658C120.304 10.6916 120.544 10.4533 120.815 10.4533H126.617C126.89 10.4533 127.127 10.6942 127.127 10.9658V28.0914C127.127 28.3656 126.89 28.6065 126.617 28.6065H120.815C120.541 28.6065 120.304 28.3682 120.304 28.0914V10.9658Z" fill="#00995D"/>
</g>
<mask id="mask5_1_549" style="mask-type:luminance" maskUnits="userSpaceOnUse" x="-58" y="-33" width="335" height="102">
<path d="M276.594 -32.8771H-57.3913V68.9618H276.594V-32.8771Z" fill="white"/>
</mask>
<g mask="url(#mask5_1_549)">
<path d="M128.948 19.5811C128.948 14.8122 131.859 10.3456 138.387 10.3456C141.934 10.3456 144.914 11.6218 147.123 14.0742L143.775 17.1646C142.404 15.6527 140.764 14.8481 138.923 14.8481C136.446 14.8481 134.439 16.2934 134.439 19.5837C134.439 23.1431 136.747 24.4526 138.989 24.4526C140.797 24.4526 142.37 23.612 143.977 21.8003L147.291 24.8216C144.612 27.9786 141.936 28.9524 138.79 28.9524C132.061 28.9524 128.948 24.5192 128.948 19.5811Z" fill="#F47920"/>
</g>
<mask id="mask6_1_549" style="mask-type:luminance" maskUnits="userSpaceOnUse" x="-58" y="-33" width="335" height="102">
<path d="M276.594 -32.8771H-57.3913V68.9618H276.594V-32.8771Z" fill="white"/>
</mask>
<g mask="url(#mask6_1_549)">
<path d="M149.324 3.72911L154.679 2.95777V28.5501H149.324V3.72911Z" fill="#F47920"/>
</g>
<mask id="mask7_1_549" style="mask-type:luminance" maskUnits="userSpaceOnUse" x="-58" y="-33" width="335" height="102">
<path d="M276.594 -32.8771H-57.3913V68.9618H276.594V-32.8771Z" fill="white"/>
</mask>
<g mask="url(#mask7_1_549)">
<path d="M169.901 22.9407H169.398C168.663 27.0715 166.352 29.0191 162.805 29.0191C158.119 29.0191 156.947 25.5596 156.947 21.7978V10.5456H162.302V21.2596C162.302 23.1739 163.037 24.0477 165.014 24.0477C167.054 24.0477 169.6 23.1073 169.6 17.2979V10.5481H174.955V28.5501H169.901V22.9407Z" fill="#F47920"/>
</g>
<mask id="mask8_1_549" style="mask-type:luminance" maskUnits="userSpaceOnUse" x="-58" y="-33" width="335" height="102">
<path d="M276.594 -32.8771H-57.3913V68.9618H276.594V-32.8771Z" fill="white"/>
</mask>
<g mask="url(#mask8_1_549)">
<path d="M178.163 20.3217V3.72911L183.518 2.95777V15.0146H183.988C185.527 11.5552 187.803 10.0766 190.982 10.0766C194.933 10.0766 198.38 12.529 198.38 19.0097C198.38 25.8953 194.463 29.0191 189.846 29.0191C186.431 29.0191 184.391 27.3073 183.285 23.6787H182.884L182.014 28.5501H176.625L178.163 20.3217ZM192.89 19.3121C192.89 16.155 191.35 15.0121 189.141 15.0121C186.597 15.0121 184.422 16.524 183.518 17.362C183.518 22.4 185.66 24.1784 188.538 24.1784C191.35 24.1835 192.89 22.5025 192.89 19.3121Z" fill="#F47920"/>
</g>
</g>
<defs>
<clipPath id="clip0_1_549">
<rect width="220" height="36.0847" fill="white"/>
</clipPath>
</defs>
</svg>
