<svg width="20" height="18" viewBox="0 0 20 18" fill="none" xmlns="http://www.w3.org/2000/svg">
<path d="M1 1H2.93032C3.68362 1 4.32706 1.59997 4.47353 2.42935L5.78657 10.0702C5.92781 10.8996 6.57649 11.4995 7.32978 11.4995L16.2295 11.5C16.9828 11.5 17.6263 10.9 17.7727 10.0707L18.9707 3.10038C19.159 2.01219 18.4162 1.00047 17.4275 1.00047H8" stroke="#F47920" stroke-width="2" stroke-linecap="round" stroke-linejoin="round"/>
<path d="M15.3647 18C16.4693 18 17.3647 17.1046 17.3647 16C17.3647 14.8954 16.4693 14 15.3647 14C14.2602 14 13.3647 14.8954 13.3647 16C13.3647 17.1046 14.2602 18 15.3647 18Z" fill="#F47920"/>
<path d="M8 18C9.10457 18 10 17.1046 10 16C10 14.8954 9.10457 14 8 14C6.89543 14 6 14.8954 6 16C6 17.1046 6.89543 18 8 18Z" fill="#F47920"/>
</svg>
