<svg width="18" height="15" viewBox="0 0 18 15" fill="none" xmlns="http://www.w3.org/2000/svg">
<path d="M17.0474 5.35891C16.9919 5.65707 16.953 5.95897 16.8778 6.25227C16.6791 7.0283 16.2801 7.71429 15.782 8.34947C15.0131 9.32951 14.0782 10.1579 13.1134 10.9567C11.9759 11.8982 10.8325 12.8331 9.68942 13.7686C9.25069 14.1277 8.77892 14.1434 8.35593 13.7944C6.86899 12.5678 5.3781 11.3445 3.90887 10.0984C3.15379 9.45804 2.47504 8.74403 1.92221 7.931C0.930649 6.47346 0.661904 4.91242 1.28989 3.27143C1.85807 1.78736 2.96138 0.816284 4.61752 0.512147C6.33425 0.197175 7.71692 0.782284 8.81512 2.04031C8.86863 2.10158 8.91821 2.16585 8.97015 2.22824C8.97644 2.23572 8.98588 2.24095 9.01146 2.26112C9.07087 2.18901 9.1295 2.11578 9.19049 2.04442C9.82713 1.30313 10.6031 0.760239 11.5958 0.536807C13.3267 0.146734 15.1642 0.834219 16.1637 2.23273C16.6571 2.92357 16.9306 3.68579 17.0187 4.51263C17.0242 4.56606 17.0372 4.61874 17.047 4.6718C17.0474 4.90084 17.0474 5.12987 17.0474 5.35891ZM9.00044 13.1421C9.03979 13.1122 9.06891 13.092 9.09606 13.0696C10.2733 12.1037 11.4545 11.142 12.6259 10.1698C13.475 9.46551 14.2943 8.73095 14.9793 7.87383C15.518 7.1998 15.937 6.47084 16.0543 5.61672C16.2129 4.45883 15.9669 3.39771 15.176 2.48082C14.0188 1.1391 11.6592 0.789383 10.1608 2.36051C9.93337 2.59889 9.74096 2.8679 9.54108 3.12907C9.43602 3.26619 9.32191 3.38202 9.14131 3.4205C8.86745 3.47879 8.64435 3.38538 8.46807 3.12235C8.21349 2.74236 7.9172 2.39899 7.56426 2.0956C6.19535 0.918286 4.05878 1.1264 2.91573 2.39862C1.77072 3.67308 1.62631 5.131 2.2724 6.66438C2.59426 7.42809 3.13883 8.05766 3.72197 8.65473C4.57856 9.53239 5.53549 10.3081 6.48731 11.0886C7.31991 11.7708 8.15447 12.4508 9.00044 13.1421Z" fill="#00995D"/>
</svg>
