<svg width="16" height="21" viewBox="0 0 16 21" fill="none" xmlns="http://www.w3.org/2000/svg">
<path d="M7.99938 1C12.0219 1 15.1528 4.62056 14.9942 8.66333C14.7317 15.4347 7.99938 20 7.99938 20M1 11.3632C1.09532 11.6581 1.20123 11.9478 1.31243 12.2321C3.24528 16.9874 8.00062 19.9996 8.00062 19.9996M8.00062 1C3.97808 1 0.84724 4.26421 1.00576 7.90909M9.73574 6.06654C10.7911 7.11691 10.7911 8.81989 9.73574 9.87026C8.68036 10.9206 6.96925 10.9206 5.91387 9.87026C4.8585 8.81989 4.8585 7.11691 5.91387 6.06654C6.96925 5.01617 8.68036 5.01617 9.73574 6.06654Z" stroke="#F47920" stroke-width="2" stroke-linecap="round" stroke-linejoin="round"/>
</svg>
